#!OML:ASF F:\VICON\USERDATA\INSTALL\rory3\rory3.ASF
:FULLY-SPECIFIED
:DEGREES
3074
root 0.18929 17.7218 -9.2424 339.518 -248.133 -1461.52
lowerback 10.3682 -0.135962 -7.2015
upperback 0.362634 -1.0403 -1.34216
thorax -5.3433 -0.318825 2.79475
lowerneck -20.0173 -6.85615 -12.7945
upperneck 33.2314 -7.43638 8.01547
head 16.0633 -3.31707 4.29313
rclavicle -3.27995e-015 8.34896e-015
rhumerus -36.6341 -13.1448 -80.5989
rradius 27.1376
rwrist 6.4211
rhand -17.4544 6.9095
rfingers 7.12502
rthumb 8.79682 -22.8872
lclavicle -3.27995e-015 8.34896e-015
lhumerus -25.8553 2.1173 74.2742
lradius 38.8637
lwrist -3.74377
lhand -19.4832 24.8047
lfingers 7.12502
lthumb 6.83869 54.6742
rfemur -27.4016 -6.28001 17.1591
rtibia 25.5885
rfoot -7.10955 -15.4989
rtoes 8.85378
lfemur 17.4514 1.79747 -29.4231
ltibia 0
lfoot -3.93253 0.960112
ltoes -18.4488
3075
root 0.316116 17.7207 -9.26992 339.468 -248.165 -1461.44
lowerback 10.4138 -0.339536 -7.31393
upperback 0.367249 -1.32052 -1.13098
thorax -5.3284 -0.45373 3.12131
lowerneck -20.1385 -6.68826 -13.0875
upperneck 33.2423 -7.06373 8.02062
head 16.0591 -3.20098 4.42209
rclavicle -7.00716e-015 1.39149e-014
rhumerus -36.6419 -13.5938 -80.1448
rradius 26.6258
rwrist 7.68094
rhand -17.4617 8.59265
rfingers 7.12502
rthumb 8.78982 -21.2043
lclavicle -7.00716e-015 1.39149e-014
lhumerus -26.2192 2.69038 74.3991
lradius 39.1888
lwrist -3.43689
lhand -19.7092 25.2294
lfingers 7.12502
lthumb 6.62053 55.106
rfemur -27.0438 -6.89188 17.4879
rtibia 25.9784
rfoot -6.46757 -15.2803
rtoes 9.1076
lfemur 18.0291 1.54207 -29.3477
ltibia 2.8625e-014
lfoot -3.67277 1.11732
ltoes -19.2592
3076
root 0.446904 17.7274 -9.2927 339.448 -248.267 -1461.38
lowerback 10.3668 -0.438285 -7.4594
upperback 0.37435 -1.45839 -0.968947
thorax -5.27207 -0.519632 3.39236
lowerneck -20.2202 -6.60055 -13.2304
upperneck 33.2293 -6.89242 8.07736
head 16.0567 -3.14126 4.50601
rclavicle -1.01877e-015 2.0276e-014
rhumerus -36.7537 -13.7752 -79.9016
rradius 26.3535
rwrist 8.20602
rhand -17.311 9.22268
rfingers 7.12502
rthumb 8.93524 -20.5681
lclavicle -1.01877e-015 2.0276e-014
lhumerus -26.4937 3.11639 74.5028
lradius 39.4213
lwrist -3.38725
lhand -19.6256 25.0934
lfingers 7.12502
lthumb 6.70121 54.9673
rfemur -26.6952 -6.92297 17.67
rtibia 26.2993
rfoot -5.81118 -15.3817
rtoes 11.5412
lfemur 18.5365 1.34214 -29.2469
ltibia 9.54166e-015
lfoot -3.26242 1.23607
ltoes -20.8029
3077
root 0.578441 17.7455 -9.31494 339.568 -248.334 -1461.12
lowerback 10.378 -0.477509 -7.42758
upperback 0.389602 -1.50459 -0.903861
thorax -5.256 -0.543908 3.44978
lowerneck -20.3255 -6.61569 -13.2307
upperneck 33.3523 -6.91771 8.11765
head 16.1486 -3.14472 4.52498
rclavicle -3.63776e-014 -3.57812e-015
rhumerus -36.9713 -14.0005 -79.7818
rradius 26.2006
rwrist 8.27528
rhand -16.9488 8.59857
rfingers 7.12502
rthumb 9.28474 -21.177
lclavicle -3.63776e-014 -3.57812e-015
lhumerus -26.6853 3.11685 74.6847
lradius 39.6804
lwrist -2.90751
lhand -20.8669 25.4379
lfingers 7.12502
lthumb 5.50285 55.3465
rfemur -26.2707 -6.63841 17.7649
rtibia 26.5
rfoot -5.02284 -15.9002
rtoes 15.3933
lfemur 19.0696 1.08776 -29.067
ltibia -9.54166e-015
lfoot -2.77396 1.24233
ltoes -21.5163
3078
root 0.712145 17.7639 -9.34209 339.818 -248.395 -1460.68
lowerback 10.449 -0.487668 -7.21331
upperback 0.349662 -1.50173 -0.87177
thorax -5.34281 -0.544259 3.36511
lowerneck -20.2979 -6.62132 -13.0496
upperneck 33.5103 -6.92808 7.93823
head 16.2031 -3.14864 4.41961
rclavicle -7.25564e-014 -1.78906e-014
rhumerus -37.3505 -14.3497 -79.5508
rradius 26.0744
rwrist 8.46953
rhand -16.8479 7.92665
rfingers 7.12502
rthumb 9.38208 -21.8445
lclavicle -7.25564e-014 -1.78906e-014
lhumerus -26.9756 2.85919 74.9321
lradius 39.9313
lwrist -2.26115
lhand -21.5178 25.9734
lfingers 7.12502
lthumb 4.87438 55.8973
rfemur -25.8248 -6.48868 17.9209
rtibia 26.5943
rfoot -4.06983 -16.3055
rtoes 18.4722
lfemur 19.6601 0.808162 -28.8257
ltibia 6.36111e-015
lfoot -2.17999 1.1535
ltoes -21.9347
3079
root 0.848627 17.7804 -9.36514 340.188 -248.626 -1460.22
lowerback 10.4036 -0.361381 -6.95122
upperback 0.284813 -1.30562 -0.884355
thorax -5.41334 -0.451862 3.17643
lowerneck -20.0385 -6.68249 -12.6054
upperneck 33.4381 -7.09858 7.61268
head 16.0883 -3.2081 4.15983
rclavicle -3.40419e-015 -5.96354e-015
rhumerus -37.8477 -14.8505 -79.2762
rradius 26.033
rwrist 8.49535
rhand -16.9192 7.87926
rfingers 7.12502
rthumb 9.31326 -21.895
lclavicle -3.40419e-015 -5.96354e-015
lhumerus -27.1804 2.22807 75.18
lradius 40.0652
lwrist -1.92434
lhand -21.2649 26.1561
lfingers 7.12502
lthumb 5.11856 56.0743
rfemur -25.4718 -6.15492 18.1647
rtibia 26.6209
rfoot -3.50293 -16.4735
rtoes 20.2638
lfemur 20.1492 0.663335 -28.4982
ltibia 7.63333e-014
lfoot -1.49601 1.03524
ltoes -23.0397
3080
root 0.985978 17.7997 -9.38457 340.931 -249.005 -1459.47
lowerback 10.235 -0.295894 -6.66968
upperback 0.243823 -1.17278 -0.785797
thorax -5.37894 -0.395109 3.10056
lowerneck -19.9354 -6.69834 -12.4001
upperneck 33.3485 -7.19503 7.55759
head 16.0179 -3.23064 4.07656
rclavicle -9.90196e-014 -1.03368e-014
rhumerus -38.137 -15.2046 -79.0525
rradius 25.9443
rwrist 8.45084
rhand -16.7408 8.0852
rfingers 7.12502
rthumb 9.48542 -21.6813
lclavicle -9.90196e-014 -1.03368e-014
lhumerus -27.3455 2.12202 75.3323
lradius 40.0699
lwrist -1.94542
lhand -21.1617 26.0291
lfingers 7.12502
lthumb 5.2182 55.9448
rfemur -25.1731 -6.0287 18.7101
rtibia 26.5721
rfoot -2.89836 -16.2466
rtoes 19.6883
lfemur 20.5404 0.60163 -27.9945
ltibia -6.67916e-014
lfoot -0.743777 0.815992
ltoes -24.4945
3081
root 1.12422 17.8196 -9.40353 341.474 -249.382 -1458.91
lowerback 10.0682 -0.265629 -6.54604
upperback 0.203765 -1.10294 -0.625785
thorax -5.33364 -0.364909 3.18725
lowerneck -19.9487 -6.73282 -12.5915
upperneck 33.385 -7.26192 7.79365
head 16.0726 -3.25007 4.20332
rclavicle -2.94947e-014 -7.95139e-015
rhumerus -38.3272 -15.474 -78.7798
rradius 25.8164
rwrist 8.51459
rhand -16.615 8.10941
rfingers 7.12502
rthumb 9.60685 -21.6515
lclavicle -2.94947e-014 -7.95139e-015
lhumerus -27.6509 2.40555 75.515
lradius 40.1211
lwrist -2.01803
lhand -21.3361 25.9704
lfingers 7.12502
lthumb 5.0498 55.8902
rfemur -24.8026 -5.95126 19.1911
rtibia 26.4598
rfoot -2.13157 -15.7708
rtoes 19.0517
lfemur 19.4554 0.579665 -27.5371
ltibia 2.9386
lfoot -1.40257 0.856
ltoes -25.522
3082
root 1.26191 17.8341 -9.42637 341.782 -249.75 -1458.53
lowerback 9.98222 -0.2364 -6.44343
upperback 0.173154 -1.04304 -0.484287
thorax -5.32281 -0.33773 3.269
lowerneck -19.8952 -6.70425 -12.6362
upperneck 33.3216 -7.24447 7.88407
head 16.0331 -3.23748 4.2526
rclavicle 1.2598e-014 -8.34896e-015
rhumerus -38.5256 -15.9489 -78.3841
rradius 25.6113
rwrist 8.9391
rhand -16.7078 7.92186
rfingers 7.12502
rthumb 9.51731 -21.8432
lclavicle 1.2598e-014 -8.34896e-015
lhumerus -28.0746 2.63144 75.7255
lradius 40.2422
lwrist -1.95688
lhand -21.3361 25.9085
lfingers 7.12502
lthumb 5.04982 55.8283
rfemur -24.315 -5.61812 19.4785
rtibia 26.3572
rfoot -1.67829 -15.3873
rtoes 21.825
lfemur 18.1359 0.596525 -27.1751
ltibia 6.45477
lfoot -2.26507 0.935109
ltoes -25.3164
3083
root 1.39793 17.8432 -9.45159 341.984 -250.164 -1458.27
lowerback 9.94118 -0.232385 -6.31805
upperback 0.133033 -1.01806 -0.347842
thorax -5.34421 -0.326989 3.33836
lowerneck -19.9926 -6.63027 -12.5444
upperneck 33.3483 -7.12521 7.78718
head 16.0409 -3.18928 4.21794
rclavicle 4.39563e-014 3.57812e-015
rhumerus -38.6426 -15.9999 -78.1958
rradius 25.4366
rwrist 9.03239
rhand -16.9377 7.72138
rfingers 7.12502
rthumb 9.29541 -22.0537
lclavicle 4.39563e-014 3.57812e-015
lhumerus -28.5726 2.9732 75.885
lradius 40.4046
lwrist -1.94216
lhand -20.9422 25.78
lfingers 7.12502
lthumb 5.43014 55.6905
rfemur -23.8486 -5.21727 19.7455
rtibia 26.3531
rfoot -1.41234 -15.1506
rtoes 24.4707
lfemur 17.2537 0.67519 -26.8839
ltibia 9.08365
lfoot -2.48629 0.839574
ltoes -25.5305
3084
root 1.53259 17.8541 -9.47034 342.084 -250.582 -1458.12
lowerback 9.96142 -0.163733 -6.1399
upperback 0.0733849 -0.912764 -0.364358
thorax -5.4323 -0.276625 3.20672
lowerneck -20.1014 -6.62876 -12.4159
upperneck 33.4239 -7.20374 7.89653
head 16.113 -3.1878 4.23154
rclavicle 2.61153e-014 5.96354e-015
rhumerus -38.8858 -16.0165 -78.2311
rradius 25.4183
rwrist 8.81741
rhand -16.9316 7.75718
rfingers 7.12502
rthumb 9.30138 -22.0176
lclavicle 2.61153e-014 5.96354e-015
lhumerus -29.0068 2.99666 75.9663
lradius 40.5063
lwrist -1.83771
lhand -20.7371 25.787
lfingers 7.12502
lthumb 5.62821 55.6922
rfemur -23.4306 -5.54439 20.1454
rtibia 26.4337
rfoot -1.60575 -14.4341
rtoes 24.8883
lfemur 16.4764 0.766973 -26.612
ltibia 11.4741
lfoot -2.47853 0.699383
ltoes -26.2542
